<svg width="232" height="130" viewBox="0 0 232 130" fill="none" xmlns="http://www.w3.org/2000/svg">
<path d="M59.726 46.3125C63.0888 46.3125 65.5526 47.2923 67.1174 49.2483C68.681 51.2056 69.464 53.483 69.464 56.0781C69.464 58.376 68.652 60.4608 67.0292 62.3326C65.4064 64.2056 62.9317 65.1408 59.6076 65.1408C58.3111 65.1408 57.261 66.1869 57.261 67.4784V72.5689C57.261 73.8605 56.211 74.9065 54.9144 74.9065H53.5067C52.2102 74.9065 51.1602 73.8605 51.1602 72.5689V48.6501C51.1602 47.3585 52.2102 46.3125 53.5067 46.3125H59.7248H59.726ZM57.2622 58.2075C57.2622 59.4991 58.3123 60.5451 59.6088 60.5451H59.8251C60.7604 60.5451 61.5832 60.1094 62.2949 59.2367C63.0067 58.3652 63.3631 57.1627 63.3631 55.6304C63.3631 54.0981 63.0067 52.9293 62.2949 52.1204C61.5832 51.3127 60.7592 50.9082 59.8251 50.9082H59.6088C58.3123 50.9082 57.2622 51.9543 57.2622 53.2458V58.2087V58.2075Z" fill="#232323"/>
<path d="M78.2298 48.6104V68.0129C78.2298 69.2816 79.2629 70.3107 80.5365 70.3107H85.9547C87.2282 70.3107 88.2614 71.3399 88.2614 72.6086C88.2614 73.8773 87.2282 74.9065 85.9547 74.9065H77.1737C75.8433 74.9065 74.67 74.4382 73.6538 73.5018C72.6364 72.5653 72.1289 71.3748 72.1289 69.928V48.6104C72.1289 47.3417 73.162 46.3125 74.4356 46.3125H75.9231C77.1967 46.3125 78.2298 47.3417 78.2298 48.6104Z" fill="#232323"/>
<path d="M94.9685 46.3125C96.653 46.3125 98.0196 47.6727 98.0196 49.3519V65.2119C98.0196 67.1041 98.3217 68.4907 98.9295 69.3731C99.5348 70.2542 100.328 70.6959 101.305 70.6959C102.361 70.6959 103.172 70.2554 103.74 69.3731C104.307 68.4919 104.591 67.1053 104.591 65.2119V49.3519C104.591 47.6739 105.956 46.3125 107.642 46.3125C109.326 46.3125 110.693 47.6727 110.693 49.3519V65.78C110.693 68.3764 109.881 70.6093 108.258 72.4822C106.635 74.354 104.317 75.2905 101.306 75.2905C98.2951 75.2905 96.1237 74.4286 94.4429 72.7061C92.7609 70.9824 91.9199 68.6966 91.9199 65.845V49.3531C91.9199 47.6751 93.2853 46.3137 94.971 46.3137L94.9685 46.3125Z" fill="#232323"/>
<path d="M131.235 48.3551C131.671 48.7933 132.047 49.2543 132.364 49.7382C133.613 51.64 132.241 54.163 129.96 54.163H129.829C128.683 54.163 127.671 53.4733 127.193 52.4357C127.05 52.1275 126.866 51.8423 126.639 51.5787C126.033 50.8769 125.299 50.5254 124.439 50.5254C123.696 50.5254 123.06 50.7842 122.532 51.2994C122.004 51.8158 121.741 52.4598 121.741 53.2337C121.741 54.1799 122.083 55.0188 122.768 55.7483C123.452 56.4789 124.459 57.082 125.789 57.5538C128.448 58.4987 130.52 59.7783 132.007 61.39C133.493 63.003 134.236 64.9482 134.236 67.2268C134.236 69.5054 133.424 71.3639 131.801 72.9348C130.179 74.5032 127.861 75.288 124.85 75.288C121.839 75.288 119.413 74.5224 117.81 72.9901C117.09 72.3028 116.511 71.4855 116.075 70.5406C115.2 68.6436 116.586 66.4805 118.682 66.4805H118.732C119.969 66.4805 121.098 67.2449 121.495 68.4136C121.646 68.8578 121.858 69.2454 122.13 69.5764C122.741 70.3215 123.566 70.6935 124.603 70.6935C125.565 70.6935 126.297 70.3937 126.798 69.7907C127.298 69.1888 127.548 68.4799 127.548 67.6625C127.548 66.6731 127.177 65.7703 126.437 64.9542C125.698 64.1369 124.647 63.4496 123.285 62.8899C120.52 61.7295 118.467 60.4391 117.124 59.0199C115.781 57.602 115.109 55.8386 115.109 53.7321C115.109 51.6256 115.884 49.9055 117.434 48.3154C118.983 46.7253 121.289 45.9285 124.348 45.9285C127.408 45.9285 129.624 46.7374 131.233 48.3539L131.235 48.3551Z" fill="#232323"/>
<path d="M147.574 46.3125C150.936 46.3125 153.4 47.2923 154.965 49.2483C156.529 51.2056 157.312 53.483 157.312 56.0781C157.312 58.376 156.5 60.4608 154.877 62.3326C153.254 64.2056 150.779 65.1408 147.455 65.1408C146.159 65.1408 145.109 66.1869 145.109 67.4784V72.5689C145.109 73.8605 144.059 74.9065 142.762 74.9065H141.354C140.058 74.9065 139.008 73.8605 139.008 72.5689V48.6501C139.008 47.3585 140.058 46.3125 141.354 46.3125H147.572H147.574ZM145.11 58.2075C145.11 59.4991 146.16 60.5451 147.456 60.5451H147.673C148.608 60.5451 149.431 60.1094 150.143 59.2367C150.854 58.3652 151.211 57.1627 151.211 55.6304C151.211 54.0981 150.854 52.9293 150.143 52.1204C149.431 51.3127 148.607 50.9082 147.673 50.9082H147.456C146.16 50.9082 145.11 51.9543 145.11 53.2458V58.2087V58.2075Z" fill="#232323"/>
<path d="M166.193 48.6104V68.0129C166.193 69.2816 167.226 70.3107 168.499 70.3107H173.918C175.191 70.3107 176.224 71.3399 176.224 72.6086C176.224 73.8773 175.191 74.9065 173.918 74.9065H165.137C163.806 74.9065 162.633 74.4382 161.617 73.5018C160.599 72.5653 160.092 71.3748 160.092 69.928V48.6104C160.092 47.3417 161.125 46.3125 162.399 46.3125H163.886C165.16 46.3125 166.193 47.3417 166.193 48.6104Z" fill="#232323"/>
<path d="M193.537 48.1446L202.063 70.8308C202.803 72.8036 201.34 74.9065 199.226 74.9065C197.97 74.9065 196.845 74.1349 196.397 72.9673L195.446 70.4901C195.301 70.1134 194.938 69.8642 194.534 69.8642H186.845C186.44 69.8642 186.077 70.1134 185.933 70.4901L184.982 72.9673C184.533 74.1349 183.409 74.9065 182.153 74.9065C180.038 74.9065 178.575 72.8036 179.316 70.8308L187.842 48.1446C188.285 46.9661 189.415 46.1849 190.679 46.1849H190.702C191.965 46.1849 193.096 46.9661 193.539 48.1446H193.537ZM193.127 63.0898L191.614 58.6204C191.315 57.7369 190.062 57.7369 189.762 58.6204L188.248 63.0898C188.034 63.7205 188.505 64.3741 189.173 64.3741H192.2C192.869 64.3741 193.34 63.7205 193.126 63.0898H193.127Z" fill="#232323"/>
<path d="M206.798 47.9134L210.021 55.0562C210.3 55.6749 211.182 55.6749 211.46 55.0562L214.683 47.9134C215.139 46.8999 216.151 46.2487 217.266 46.2487C219.352 46.2487 220.722 48.4189 219.818 50.2919L214.071 62.2001C213.887 62.5817 213.792 62.9994 213.792 63.4231V72.0224C213.792 73.58 212.524 74.8438 210.96 74.8438H210.522C208.959 74.8438 207.69 73.5812 207.69 72.0224V63.4231C207.69 62.9994 207.594 62.5817 207.411 62.2001L201.664 50.2919C200.76 48.4189 202.13 46.2487 204.216 46.2487C205.331 46.2487 206.341 46.8999 206.799 47.9134H206.798Z" fill="#232323"/>
<path d="M32.9491 45.6072H36.0835C38.9497 45.6072 41.2757 47.9243 41.2757 50.7795V54.2221C41.2757 57.8862 38.2899 60.8605 34.6118 60.8605H26.2852V52.2456C26.2852 48.5815 29.2709 45.6072 32.9491 45.6072Z" fill="#FFCE33"/>
<path d="M41.2754 67.4977V70.9403C41.2754 73.7955 38.9493 76.1126 36.0832 76.1126H32.9488C29.2706 76.1126 26.2848 73.1382 26.2848 69.4742V60.8593H34.6114C38.2896 60.8593 41.2754 63.8336 41.2754 67.4977Z" fill="#40C639"/>
<path d="M11.2949 54.2208V50.7782C11.2949 47.923 13.621 45.6059 16.4871 45.6059H19.6215C23.2997 45.6059 26.2855 48.5803 26.2855 52.2443V60.8593H17.9589C14.2807 60.8593 11.2949 57.8849 11.2949 54.2208Z" fill="#E54242"/>
<path d="M19.6212 76.1125H16.4868C13.6206 76.1125 11.2946 73.7954 11.2946 70.9402L11.2946 67.4976C11.2946 63.8336 14.2804 60.8592 17.9585 60.8592H26.2852L26.2852 69.4741C26.2852 73.1382 23.2994 76.1125 19.6212 76.1125Z" fill="#316CFF"/>
<path d="M28.0852 56.5019C28.0852 55.5114 27.2791 54.7084 26.2848 54.7084C25.2904 54.7084 24.4844 55.5114 24.4844 56.5019V65.2191C24.4844 66.2096 25.2904 67.0126 26.2848 67.0126C27.2791 67.0126 28.0852 66.2096 28.0852 65.2191V56.5019Z" fill="#232323"/>
<path d="M30.6605 62.6527C31.6549 62.6527 32.4609 61.8497 32.4609 60.8592C32.4609 59.8687 31.6549 59.0657 30.6605 59.0657H21.9098C20.9154 59.0657 20.1093 59.8687 20.1093 60.8592C20.1093 61.8497 20.9154 62.6527 21.9098 62.6527H30.6605Z" fill="#232323"/>
</svg>
