<svg width="22" height="22" viewBox="0 0 22 22" fill="none" xmlns="http://www.w3.org/2000/svg">
<path d="M4.58333 19.25C4.07917 19.25 3.64757 19.0705 3.28854 18.7115C2.92951 18.3524 2.75 17.9208 2.75 17.4167V4.58333C2.75 4.07917 2.92951 3.64757 3.28854 3.28854C3.64757 2.92951 4.07917 2.75 4.58333 2.75H17.4167C17.9208 2.75 18.3524 2.92951 18.7115 3.28854C19.0705 3.64757 19.25 4.07917 19.25 4.58333V17.4167C19.25 17.9208 19.0705 18.3524 18.7115 18.7115C18.3524 19.0705 17.9208 19.25 17.4167 19.25H4.58333ZM4.58333 17.4167H17.4167V4.58333H4.58333V17.4167ZM5.5 15.5833H16.5L13.0625 11L10.3125 14.6667L8.25 11.9167L5.5 15.5833Z" fill="#767676"/>
</svg>
