<svg width="24" height="25" viewBox="0 0 24 25" fill="none" xmlns="http://www.w3.org/2000/svg">
<path fill-rule="evenodd" clip-rule="evenodd" d="M22.5 12.5C22.5 9.71523 21.3938 7.04451 19.4246 5.07538C17.4555 3.10625 14.7848 2 12 2C9.21523 2 6.54451 3.10625 4.57538 5.07538C2.60625 7.04451 1.5 9.71523 1.5 12.5C1.5 15.2848 2.60625 17.9555 4.57538 19.9246C6.54451 21.8938 9.21523 23 12 23C14.7848 23 17.4555 21.8938 19.4246 19.9246C21.3938 17.9555 22.5 15.2848 22.5 12.5ZM7.125 11.375C6.82663 11.375 6.54048 11.4935 6.3295 11.7045C6.11853 11.9155 6 12.2016 6 12.5C6 12.7984 6.11853 13.0845 6.3295 13.2955C6.54048 13.5065 6.82663 13.625 7.125 13.625H14.16L12.33 15.455C12.2195 15.558 12.1308 15.6822 12.0693 15.8202C12.0078 15.9582 11.9748 16.1072 11.9721 16.2582C11.9694 16.4093 11.9972 16.5593 12.0538 16.6994C12.1104 16.8395 12.1946 16.9667 12.3014 17.0736C12.4083 17.1804 12.5355 17.2646 12.6756 17.3212C12.8157 17.3778 12.9657 17.4056 13.1168 17.4029C13.2678 17.4002 13.4168 17.3672 13.5548 17.3057C13.6928 17.2442 13.817 17.1555 13.92 17.045L17.67 13.295C17.8807 13.0841 17.999 12.7981 17.999 12.5C17.999 12.2019 17.8807 11.9159 17.67 11.705L13.92 7.955C13.7067 7.75628 13.4247 7.6481 13.1332 7.65324C12.8418 7.65838 12.5637 7.77645 12.3576 7.98257C12.1514 8.18869 12.0334 8.46676 12.0282 8.75822C12.0231 9.04967 12.1313 9.33174 12.33 9.545L14.16 11.375H7.125Z" fill="white"/>
</svg>
