<svg width="21" height="21" viewBox="0 0 21 21" fill="none" xmlns="http://www.w3.org/2000/svg">
<path d="M2.625 4.59379C2.26406 4.59379 1.96875 4.8891 1.96875 5.25004C1.96875 5.61098 2.26406 5.90629 2.625 5.90629H4.08122L5.80387 12.7969C5.94956 13.381 6.47325 13.7813 7.07503 13.7813H15.2578C15.8497 13.7813 16.3524 13.3889 16.5086 12.8173L18.2109 6.56254H16.8368L15.2578 12.4688H7.07503L5.35238 5.57816C5.28172 5.29535 5.11801 5.04451 4.88758 4.86598C4.65715 4.68744 4.37337 4.59157 4.08187 4.59379H2.625ZM14.4375 13.7813C13.358 13.7813 12.4688 14.6705 12.4688 15.75C12.4688 16.8296 13.358 17.7188 14.4375 17.7188C15.517 17.7188 16.4062 16.8296 16.4062 15.75C16.4062 14.6705 15.517 13.7813 14.4375 13.7813ZM8.53125 13.7813C7.45172 13.7813 6.5625 14.6705 6.5625 15.75C6.5625 16.8296 7.45172 17.7188 8.53125 17.7188C9.61078 17.7188 10.5 16.8296 10.5 15.75C10.5 14.6705 9.61078 13.7813 8.53125 13.7813ZM10.5 4.59379V6.56254H8.53125V7.87504H10.5V9.84379H11.8125V7.87504H13.7812V6.56254H11.8125V4.59379H10.5ZM8.53125 15.0938C8.90072 15.0938 9.1875 15.3812 9.1875 15.75C9.1875 16.1188 8.90006 16.4063 8.53125 16.4063C8.16244 16.4063 7.875 16.1188 7.875 15.75C7.875 15.3812 8.16244 15.0938 8.53125 15.0938ZM14.4375 15.0938C14.807 15.0938 15.0938 15.3812 15.0938 15.75C15.0938 16.1188 14.8063 16.4063 14.4375 16.4063C14.0687 16.4063 13.7812 16.1188 13.7812 15.75C13.7812 15.3812 14.0687 15.0938 14.4375 15.0938Z" fill="#686868"/>
</svg>
