<svg width="48" height="48" viewBox="0 0 48 48" fill="none" xmlns="http://www.w3.org/2000/svg">
<path fill-rule="evenodd" clip-rule="evenodd" d="M15.4397 25.06C15.1588 24.7788 15.001 24.3975 15.001 24C15.001 23.6025 15.1588 23.2213 15.4397 22.94L30.4397 7.94C30.577 7.79263 30.7426 7.67442 30.9266 7.59244C31.1106 7.51046 31.3092 7.46637 31.5106 7.46282C31.712 7.45927 31.9121 7.49631 32.0989 7.57176C32.2856 7.6472 32.4553 7.75949 32.5977 7.90193C32.7402 8.04436 32.8525 8.21403 32.9279 8.40081C33.0033 8.58758 33.0404 8.78764 33.0368 8.98905C33.0333 9.19045 32.9892 9.38908 32.9072 9.57308C32.8252 9.75708 32.707 9.92268 32.5597 10.06L18.6197 24L32.5597 37.94C32.707 38.0773 32.8252 38.2429 32.9072 38.4269C32.9892 38.6109 33.0333 38.8096 33.0368 39.011C33.0404 39.2124 33.0033 39.4124 32.9279 39.5992C32.8525 39.786 32.7402 39.9556 32.5977 40.0981C32.4553 40.2405 32.2856 40.3528 32.0989 40.4282C31.9121 40.5037 31.712 40.5407 31.5106 40.5372C31.3092 40.5336 31.1106 40.4896 30.9266 40.4076C30.7426 40.3256 30.577 40.2074 30.4397 40.06L15.4397 25.06Z" fill="white"/>
</svg>
