<svg width="29" height="29" viewBox="0 0 29 29" fill="none" xmlns="http://www.w3.org/2000/svg">
<path d="M15.7808 14.5L21.1217 9.15912C21.2107 9.07615 21.2821 8.9761 21.3316 8.86493C21.3812 8.75377 21.4078 8.63376 21.4099 8.51208C21.4121 8.3904 21.3897 8.26953 21.3441 8.15669C21.2986 8.04384 21.2307 7.94133 21.1447 7.85528C21.0586 7.76922 20.9561 7.70138 20.8432 7.6558C20.7304 7.61022 20.6095 7.58784 20.4879 7.58998C20.3662 7.59213 20.2462 7.61877 20.135 7.6683C20.0238 7.71783 19.9238 7.78924 19.8408 7.87828L14.5 13.2191L9.15915 7.87828C8.98736 7.7182 8.76013 7.63105 8.52535 7.6352C8.29057 7.63934 8.06656 7.73445 7.90052 7.90049C7.73448 8.06653 7.63937 8.29054 7.63523 8.52532C7.63109 8.7601 7.71824 8.98732 7.87832 9.15912L13.2191 14.5L7.87832 19.8408C7.70861 20.0107 7.61328 20.241 7.61328 20.4812C7.61328 20.7214 7.70861 20.9517 7.87832 21.1216C8.04824 21.2913 8.27858 21.3867 8.51873 21.3867C8.75889 21.3867 8.98923 21.2913 9.15915 21.1216L14.5 15.7808L19.8408 21.1216C20.0107 21.2913 20.2411 21.3867 20.4812 21.3867C20.7214 21.3867 20.9517 21.2913 21.1217 21.1216C21.2914 20.9517 21.3867 20.7214 21.3867 20.4812C21.3867 20.241 21.2914 20.0107 21.1217 19.8408L15.7808 14.5Z" fill="#101010"/>
</svg>
