<svg width="17" height="17" viewBox="0 0 17 17" fill="none" xmlns="http://www.w3.org/2000/svg">
<path d="M13.4588 9.91677V12.0418H15.5838V13.4584H13.4588V15.5834H12.0421V13.4584H9.91715V12.0418H12.0421V9.91677H13.4588ZM14.3393 3.36965C15.1065 4.13678 15.5514 5.16831 15.5826 6.25284C15.6138 7.33738 15.229 8.39278 14.5071 9.20277L13.5013 8.19836C14.4434 7.11886 14.3938 5.42594 13.3363 4.37052C12.8244 3.85951 12.1365 3.56361 11.4134 3.54346C10.6904 3.52331 9.98707 3.78044 9.44752 4.26215L8.5019 5.11073L7.55556 4.26286C7.01841 3.78253 6.31843 3.52491 5.59806 3.54242C4.87769 3.55994 4.19105 3.85127 3.67788 4.35713C3.16471 4.86299 2.86356 5.54538 2.83571 6.26543C2.80786 6.98547 3.05541 7.68908 3.52798 8.23306L9.50065 14.2156L8.50048 15.2186L2.49381 9.20348C1.77079 8.39312 1.38542 7.33671 1.41682 6.25114C1.44822 5.16556 1.89401 4.1332 2.66268 3.36598C3.43134 2.59877 4.46454 2.15493 5.55018 2.12558C6.63581 2.09623 7.69148 2.48359 8.50048 3.20815C9.30995 2.48399 10.366 2.09722 11.4517 2.12725C12.5374 2.15728 13.5711 2.60184 14.3393 3.36965Z" fill="#686868"/>
</svg>
