<svg width="25" height="25" viewBox="0 0 25 25" fill="none" xmlns="http://www.w3.org/2000/svg">
<path d="M18.5 13.498H13.5V18.498C13.5 18.7633 13.3946 19.0176 13.2071 19.2052C13.0196 19.3927 12.7652 19.498 12.5 19.498C12.2348 19.498 11.9804 19.3927 11.7929 19.2052C11.6054 19.0176 11.5 18.7633 11.5 18.498V13.498H6.5C6.23478 13.498 5.98043 13.3927 5.79289 13.2052C5.60536 13.0176 5.5 12.7633 5.5 12.498C5.5 12.2328 5.60536 11.9785 5.79289 11.7909C5.98043 11.6034 6.23478 11.498 6.5 11.498H11.5V6.49805C11.5 6.23283 11.6054 5.97848 11.7929 5.79094C11.9804 5.6034 12.2348 5.49805 12.5 5.49805C12.7652 5.49805 13.0196 5.6034 13.2071 5.79094C13.3946 5.97848 13.5 6.23283 13.5 6.49805V11.498H18.5C18.7652 11.498 19.0196 11.6034 19.2071 11.7909C19.3946 11.9785 19.5 12.2328 19.5 12.498C19.5 12.7633 19.3946 13.0176 19.2071 13.2052C19.0196 13.3927 18.7652 13.498 18.5 13.498Z" fill="#101010"/>
</svg>
