<svg width="176" height="99" viewBox="0 0 176 99" fill="none" xmlns="http://www.w3.org/2000/svg">
<path d="M45.3098 35.2687C47.8609 35.2687 49.7299 36.0149 50.917 37.5045C52.1032 38.995 52.6972 40.7293 52.6972 42.7057C52.6972 44.4556 52.0812 46.0432 50.8501 47.4687C49.619 48.895 47.7417 49.6072 45.2199 49.6072C44.2364 49.6072 43.4398 50.4038 43.4398 51.3874V55.264C43.4398 56.2476 42.6432 57.0442 41.6596 57.0442H40.5917C39.6081 57.0442 38.8115 56.2476 38.8115 55.264V37.0489C38.8115 36.0653 39.6081 35.2687 40.5917 35.2687H45.3089H45.3098ZM43.4407 44.3272C43.4407 45.3108 44.2373 46.1074 45.2209 46.1074H45.3849C46.0944 46.1074 46.7187 45.7756 47.2586 45.111C47.7985 44.4473 48.0689 43.5316 48.0689 42.3647C48.0689 41.1977 47.7985 40.3077 47.2586 39.6917C46.7187 39.0766 46.0935 38.7686 45.3849 38.7686H45.2209C44.2373 38.7686 43.4407 39.5652 43.4407 40.5487V44.3282V44.3272Z" fill="#232323"/>
<path d="M59.347 37.0187V51.7944C59.347 52.7606 60.1308 53.5443 61.0969 53.5443H65.2072C66.1734 53.5443 66.9572 54.3281 66.9572 55.2942C66.9572 56.2604 66.1734 57.0442 65.2072 57.0442H58.5458C57.5366 57.0442 56.6465 56.6876 55.8756 55.9744C55.1037 55.2612 54.7188 54.3547 54.7188 53.2528V37.0187C54.7188 36.0525 55.5025 35.2687 56.4687 35.2687H57.5971C58.5633 35.2687 59.347 36.0525 59.347 37.0187Z" fill="#232323"/>
<path d="M72.0442 35.2687C73.322 35.2687 74.3588 36.3046 74.3588 37.5833V49.6613C74.3588 51.1023 74.5879 52.1583 75.049 52.8302C75.5083 53.5012 76.1096 53.8377 76.8512 53.8377C77.6524 53.8377 78.2674 53.5022 78.6983 52.8302C79.1282 52.1592 79.3436 51.1032 79.3436 49.6613V37.5833C79.3436 36.3055 80.3794 35.2687 81.6582 35.2687C82.936 35.2687 83.9728 36.3046 83.9728 37.5833V50.094C83.9728 52.0712 83.3568 53.7717 82.1257 55.198C80.8946 56.6234 79.1364 57.3366 76.8521 57.3366C74.5678 57.3366 72.9205 56.6802 71.6454 55.3685C70.3694 54.0558 69.7314 52.3151 69.7314 50.1435V37.5842C69.7314 36.3064 70.7673 35.2697 72.046 35.2697L72.0442 35.2687Z" fill="#232323"/>
<path d="M99.5571 36.8243C99.888 37.158 100.173 37.5091 100.414 37.8776C101.361 39.3259 100.321 41.2473 98.5901 41.2473H98.491C97.6211 41.2473 96.8539 40.722 96.4909 39.9318C96.3827 39.6972 96.2434 39.4799 96.0711 39.2792C95.6109 38.7448 95.0545 38.4771 94.4018 38.4771C93.838 38.4771 93.3559 38.6742 92.9553 39.0665C92.5547 39.4598 92.3549 39.9502 92.3549 40.5396C92.3549 41.2601 92.6143 41.899 93.1341 42.4545C93.6529 43.0109 94.4174 43.4702 95.4257 43.8295C97.4433 44.5491 99.0154 45.5235 100.143 46.7509C101.27 47.9793 101.834 49.4606 101.834 51.1958C101.834 52.9311 101.218 54.3464 99.9871 55.5427C98.756 56.7371 96.9978 57.3348 94.7135 57.3348C92.4291 57.3348 90.5894 56.7518 89.373 55.5848C88.8266 55.0614 88.3876 54.439 88.0566 53.7194C87.393 52.2748 88.4444 50.6275 90.0348 50.6275H90.0724C91.011 50.6275 91.8672 51.2096 92.1688 52.0997C92.2834 52.4379 92.4438 52.7331 92.65 52.9852C93.1139 53.5526 93.74 53.8358 94.5265 53.8358C95.2561 53.8358 95.8116 53.6076 96.1911 53.1483C96.5706 52.69 96.7604 52.1501 96.7604 51.5277C96.7604 50.7742 96.479 50.0867 95.918 49.4652C95.357 48.8428 94.5595 48.3193 93.5264 47.8931C91.429 47.0094 89.8716 46.0268 88.8523 44.946C87.8339 43.8662 87.3242 42.5233 87.3242 40.9191C87.3242 39.3149 87.9118 38.005 89.0879 36.7941C90.2631 35.5832 92.012 34.9763 94.333 34.9763C96.654 34.9763 98.3352 35.5923 99.5562 36.8234L99.5571 36.8243Z" fill="#232323"/>
<path d="M111.952 35.2687C114.503 35.2687 116.373 36.0149 117.56 37.5045C118.746 38.995 119.34 40.7293 119.34 42.7057C119.34 44.4556 118.724 46.0432 117.493 47.4687C116.262 48.895 114.384 49.6072 111.863 49.6072C110.879 49.6072 110.082 50.4038 110.082 51.3874V55.264C110.082 56.2476 109.286 57.0442 108.302 57.0442H107.234C106.251 57.0442 105.454 56.2476 105.454 55.264V37.0489C105.454 36.0653 106.251 35.2687 107.234 35.2687H111.951H111.952ZM110.083 44.3272C110.083 45.3108 110.88 46.1074 111.863 46.1074H112.028C112.737 46.1074 113.361 45.7756 113.901 45.111C114.441 44.4473 114.712 43.5316 114.712 42.3647C114.712 41.1977 114.441 40.3077 113.901 39.6917C113.361 39.0766 112.736 38.7686 112.028 38.7686H111.863C110.88 38.7686 110.083 39.5652 110.083 40.5487V44.3282V44.3272Z" fill="#232323"/>
<path d="M126.076 37.0187V51.7944C126.076 52.7606 126.86 53.5443 127.826 53.5443H131.937C132.903 53.5443 133.687 54.3281 133.687 55.2942C133.687 56.2604 132.903 57.0442 131.937 57.0442H125.275C124.266 57.0442 123.376 56.6876 122.605 55.9744C121.833 55.2612 121.448 54.3547 121.448 53.2528V37.0187C121.448 36.0525 122.232 35.2687 123.198 35.2687H124.327C125.293 35.2687 126.076 36.0525 126.076 37.0187Z" fill="#232323"/>
<path d="M146.821 36.6639L153.289 53.9403C153.851 55.4427 152.741 57.0442 151.136 57.0442C150.184 57.0442 149.331 56.4566 148.991 55.5674L148.269 53.6809C148.159 53.394 147.884 53.2042 147.577 53.2042H141.744C141.437 53.2042 141.161 53.394 141.052 53.6809L140.331 55.5674C139.991 56.4566 139.137 57.0442 138.185 57.0442C136.581 57.0442 135.471 55.4427 136.033 53.9403L142.501 36.6639C142.837 35.7665 143.694 35.1716 144.653 35.1716H144.67C145.628 35.1716 146.486 35.7665 146.823 36.6639H146.821ZM146.51 48.0452L145.362 44.6417C145.135 43.9688 144.184 43.9688 143.957 44.6417L142.809 48.0452C142.646 48.5256 143.004 49.0233 143.511 49.0233H145.807C146.314 49.0233 146.671 48.5256 146.509 48.0452H146.51Z" fill="#232323"/>
<path d="M156.881 36.4879L159.326 41.9274C159.538 42.3986 160.207 42.3986 160.418 41.9274L162.862 36.4879C163.209 35.7161 163.976 35.2202 164.822 35.2202C166.404 35.2202 167.444 36.8729 166.758 38.2992L162.399 47.3678C162.259 47.6584 162.187 47.9765 162.187 48.2992V54.8478C162.187 56.034 161.225 56.9965 160.038 56.9965H159.706C158.52 56.9965 157.558 56.0349 157.558 54.8478V48.2992C157.558 47.9765 157.485 47.6584 157.346 47.3678L152.986 38.2992C152.301 36.8729 153.34 35.2202 154.922 35.2202C155.768 35.2202 156.535 35.7161 156.882 36.4879H156.881Z" fill="#232323"/>
<path d="M24.9958 34.7316H27.3737C29.548 34.7316 31.3126 36.4961 31.3126 38.6705V41.2921C31.3126 44.0825 29.0475 46.3476 26.2572 46.3476H19.9404V39.787C19.9404 36.9967 22.2055 34.7316 24.9958 34.7316Z" fill="#FFCE33"/>
<path d="M31.3125 51.4021V54.0238C31.3125 56.1981 29.5479 57.9627 27.3736 57.9627H24.9957C22.2054 57.9627 19.9403 55.6976 19.9403 52.9073V46.3467H26.2571C29.0474 46.3467 31.3125 48.6118 31.3125 51.4021Z" fill="#40C639"/>
<path d="M8.56836 41.2913V38.6696C8.56836 36.4953 10.3329 34.7307 12.5073 34.7307H14.8851C17.6754 34.7307 19.9405 36.9958 19.9405 39.7861V46.3467H13.6238C10.8334 46.3467 8.56836 44.0816 8.56836 41.2913Z" fill="#E54242"/>
<path d="M14.886 57.9627H12.5082C10.3338 57.9627 8.56924 56.1981 8.56924 54.0238V51.4021C8.56924 48.6118 10.8343 46.3467 13.6247 46.3467H19.9414V52.9073C19.9414 55.6976 17.6763 57.9627 14.886 57.9627Z" fill="#316CFF"/>
<path d="M21.3059 43.0283C21.3059 42.274 20.6944 41.6625 19.9401 41.6625C19.1857 41.6625 18.5742 42.274 18.5742 43.0283V49.6668C18.5742 50.4212 19.1857 51.0327 19.9401 51.0327C20.6944 51.0327 21.3059 50.4212 21.3059 49.6668V43.0283Z" fill="#232323"/>
<path d="M23.2601 47.7125C24.0145 47.7125 24.626 47.101 24.626 46.3467C24.626 45.5923 24.0145 44.9808 23.2601 44.9808H16.6216C15.8673 44.9808 15.2558 45.5923 15.2558 46.3467C15.2558 47.101 15.8673 47.7125 16.6216 47.7125H23.2601Z" fill="#232323"/>
</svg>
