<svg width="26" height="25" viewBox="0 0 26 25" fill="none" xmlns="http://www.w3.org/2000/svg">
<path d="M3.70508 6.23999C3.70508 6.03312 3.78726 5.83473 3.93353 5.68845C4.07981 5.54217 4.27821 5.45999 4.48508 5.45999H21.1251C21.3319 5.45999 21.5303 5.54217 21.6766 5.68845C21.8229 5.83473 21.9051 6.03312 21.9051 6.23999C21.9051 6.44686 21.8229 6.64526 21.6766 6.79153C21.5303 6.93781 21.3319 7.01999 21.1251 7.01999H4.48508C4.27821 7.01999 4.07981 6.93781 3.93353 6.79153C3.78726 6.64526 3.70508 6.44686 3.70508 6.23999ZM3.70508 18.72C3.70508 18.5131 3.78726 18.3147 3.93353 18.1684C4.07981 18.0222 4.27821 17.94 4.48508 17.94H21.1251C21.3319 17.94 21.5303 18.0222 21.6766 18.1684C21.8229 18.3147 21.9051 18.5131 21.9051 18.72C21.9051 18.9269 21.8229 19.1253 21.6766 19.2715C21.5303 19.4178 21.3319 19.5 21.1251 19.5H4.48508C4.27821 19.5 4.07981 19.4178 3.93353 19.2715C3.78726 19.1253 3.70508 18.9269 3.70508 18.72ZM4.48508 11.7C4.27821 11.7 4.07981 11.7822 3.93353 11.9284C3.78726 12.0747 3.70508 12.2731 3.70508 12.48C3.70508 12.6869 3.78726 12.8853 3.93353 13.0315C4.07981 13.1778 4.27821 13.26 4.48508 13.26H21.1251C21.3319 13.26 21.5303 13.1778 21.6766 13.0315C21.8229 12.8853 21.9051 12.6869 21.9051 12.48C21.9051 12.2731 21.8229 12.0747 21.6766 11.9284C21.5303 11.7822 21.3319 11.7 21.1251 11.7H4.48508Z" fill="black"/>
</svg>
