<svg width="163" height="28" viewBox="0 0 163 28" fill="none" xmlns="http://www.w3.org/2000/svg">
<rect width="163" height="28" fill="white"/>
<path d="M39.7414 3.26855C42.2925 3.26855 44.1616 4.01472 45.3487 5.50431C46.5348 6.99481 47.1288 8.72914 47.1288 10.7055C47.1288 12.4554 46.5128 14.0431 45.2817 15.4685C44.0507 16.8948 42.1733 17.6071 39.6516 17.6071C38.668 17.6071 37.8714 18.4036 37.8714 19.3872V23.2638C37.8714 24.2474 37.0748 25.044 36.0912 25.044H35.0233C34.0397 25.044 33.2432 24.2474 33.2432 23.2638V5.04872C33.2432 4.06514 34.0397 3.26855 35.0233 3.26855H39.7405H39.7414ZM37.8723 12.3271C37.8723 13.3106 38.6689 14.1072 39.6525 14.1072H39.8166C40.5261 14.1072 41.1503 13.7754 41.6902 13.1108C42.2302 12.4471 42.5006 11.5314 42.5006 10.3645C42.5006 9.19756 42.2302 8.30747 41.6902 7.69147C41.1503 7.07639 40.5252 6.76839 39.8166 6.76839H39.6525C38.6689 6.76839 37.8723 7.56497 37.8723 8.54856V12.328V12.3271Z" fill="#232323"/>
<path d="M53.7786 5.01847V19.7942C53.7786 20.7604 54.5624 21.5441 55.5286 21.5441H59.6389C60.6051 21.5441 61.3888 22.3279 61.3888 23.2941C61.3888 24.2602 60.6051 25.044 59.6389 25.044H52.9775C51.9682 25.044 51.0781 24.6874 50.3072 23.9742C49.5354 23.2611 49.1504 22.3545 49.1504 21.2526V5.01847C49.1504 4.0523 49.9341 3.26855 50.9003 3.26855H52.0287C52.9949 3.26855 53.7786 4.0523 53.7786 5.01847Z" fill="#232323"/>
<path d="M66.4758 3.26855C67.7537 3.26855 68.7904 4.30439 68.7904 5.58314V17.6611C68.7904 19.1021 69.0196 20.1581 69.4807 20.8301C69.9399 21.5011 70.5413 21.8375 71.2828 21.8375C72.084 21.8375 72.6991 21.502 73.1299 20.8301C73.5598 20.1591 73.7753 19.1031 73.7753 17.6611V5.58314C73.7753 4.3053 74.8111 3.26855 76.0898 3.26855C77.3677 3.26855 78.4044 4.30439 78.4044 5.58314V18.0938C78.4044 20.0711 77.7884 21.7715 76.5573 23.1978C75.3262 24.6232 73.5681 25.3364 71.2838 25.3364C68.9994 25.3364 67.3522 24.6801 66.0771 23.3683C64.8011 22.0556 64.1631 20.3149 64.1631 18.1433V5.58406C64.1631 4.30622 65.1989 3.26947 66.4777 3.26947L66.4758 3.26855Z" fill="#232323"/>
<path d="M93.9888 4.82456C94.3197 5.15823 94.6048 5.50931 94.8459 5.87781C95.7928 7.32615 94.7524 9.24748 93.0217 9.24748H92.9227C92.0528 9.24748 91.2855 8.72223 90.9225 7.93206C90.8144 7.6974 90.675 7.48015 90.5027 7.2794C90.0425 6.74498 89.4861 6.47731 88.8334 6.47731C88.2697 6.47731 87.7875 6.6744 87.3869 7.06673C86.9864 7.45998 86.7865 7.9504 86.7865 8.53981C86.7865 9.26031 87.0459 9.89923 87.5657 10.4547C88.0845 11.0111 88.849 11.4704 89.8574 11.8297C91.8749 12.5493 93.447 13.5237 94.5745 14.7511C95.702 15.9795 96.2658 17.4608 96.2658 19.1961C96.2658 20.9313 95.6498 22.3466 94.4187 23.5429C93.1876 24.7373 91.4294 25.335 89.1451 25.335C86.8608 25.335 85.021 24.752 83.8046 23.5851C83.2583 23.0616 82.8192 22.4392 82.4883 21.7196C81.8246 20.275 82.876 18.6277 84.4664 18.6277H84.504C85.4427 18.6277 86.2989 19.2098 86.6004 20.0999C86.715 20.4381 86.8754 20.7333 87.0817 20.9854C87.5455 21.5528 88.1716 21.8361 88.9581 21.8361C89.6878 21.8361 90.2433 21.6078 90.6228 21.1486C91.0023 20.6902 91.192 20.1503 91.192 19.5279C91.192 18.7744 90.9106 18.0869 90.3496 17.4654C89.7886 16.843 88.9911 16.3196 87.958 15.8933C85.8607 15.0096 84.3033 14.027 83.2839 12.9462C82.2655 11.8664 81.7559 10.5235 81.7559 8.91931C81.7559 7.31515 82.3434 6.00523 83.5195 4.79431C84.6947 3.5834 86.4437 2.97656 88.7647 2.97656C91.0857 2.97656 92.7669 3.59256 93.9879 4.82365L93.9888 4.82456Z" fill="#232323"/>
<path d="M106.384 3.26855C108.935 3.26855 110.804 4.01472 111.991 5.50431C113.177 6.99481 113.771 8.72914 113.771 10.7055C113.771 12.4554 113.155 14.0431 111.924 15.4685C110.693 16.8948 108.816 17.6071 106.294 17.6071C105.311 17.6071 104.514 18.4036 104.514 19.3872V23.2638C104.514 24.2474 103.717 25.044 102.734 25.044H101.666C100.682 25.044 99.8857 24.2474 99.8857 23.2638V5.04872C99.8857 4.06514 100.682 3.26855 101.666 3.26855H106.383H106.384ZM104.515 12.3271C104.515 13.3106 105.311 14.1072 106.295 14.1072H106.459C107.169 14.1072 107.793 13.7754 108.333 13.1108C108.873 12.4471 109.143 11.5314 109.143 10.3645C109.143 9.19756 108.873 8.30747 108.333 7.69147C107.793 7.07639 107.168 6.76839 106.459 6.76839H106.295C105.311 6.76839 104.515 7.56497 104.515 8.54856V12.328V12.3271Z" fill="#232323"/>
<path d="M120.508 5.01847V19.7942C120.508 20.7604 121.292 21.5441 122.258 21.5441H126.368C127.335 21.5441 128.118 22.3279 128.118 23.2941C128.118 24.2602 127.335 25.044 126.368 25.044H119.707C118.698 25.044 117.808 24.6874 117.037 23.9742C116.265 23.2611 115.88 22.3545 115.88 21.2526V5.01847C115.88 4.0523 116.664 3.26855 117.63 3.26855H118.758C119.724 3.26855 120.508 4.0523 120.508 5.01847Z" fill="#232323"/>
<path d="M141.252 4.66421L147.72 21.9406C148.282 23.443 147.172 25.0445 145.568 25.0445C144.616 25.0445 143.762 24.4569 143.422 23.5677L142.701 21.6812C142.591 21.3943 142.316 21.2045 142.009 21.2045H136.176C135.869 21.2045 135.593 21.3943 135.484 21.6812L134.762 23.5677C134.422 24.4569 133.569 25.0445 132.617 25.0445C131.012 25.0445 129.902 23.443 130.464 21.9406L136.932 4.66421C137.269 3.76679 138.126 3.17188 139.085 3.17188H139.102C140.06 3.17188 140.918 3.76679 141.254 4.66421H141.252ZM140.942 16.0455L139.794 12.642C139.567 11.9691 138.616 11.9691 138.389 12.642L137.24 16.0455C137.078 16.5259 137.435 17.0236 137.942 17.0236H140.239C140.746 17.0236 141.103 16.5259 140.941 16.0455H140.942Z" fill="#232323"/>
<path d="M151.313 4.48748L153.758 9.92698C153.969 10.3981 154.638 10.3981 154.849 9.92698L157.294 4.48748C157.641 3.71564 158.408 3.21973 159.254 3.21973C160.836 3.21973 161.876 4.87248 161.19 6.29881L156.83 15.3674C156.691 15.658 156.618 15.9761 156.618 16.2987V22.8474C156.618 24.0336 155.657 24.9961 154.47 24.9961H154.138C152.952 24.9961 151.989 24.0345 151.989 22.8474V16.2987C151.989 15.9761 151.917 15.658 151.778 15.3674L147.418 6.29881C146.732 4.87248 147.772 3.21973 149.354 3.21973C150.2 3.21973 150.966 3.71564 151.314 4.48748H151.313Z" fill="#232323"/>
<path d="M19.4275 2.73145H21.8053C23.9797 2.73145 25.7442 4.49603 25.7442 6.67036V9.29203C25.7442 12.0824 23.4792 14.3474 20.6888 14.3474H14.3721V7.78686C14.3721 4.99653 16.6372 2.73145 19.4275 2.73145Z" fill="#FFCE33"/>
<path d="M25.7441 19.4021V22.0238C25.7441 24.1981 23.9796 25.9627 21.8052 25.9627H19.4274C16.6371 25.9627 14.372 23.6976 14.372 20.9073V14.3467H20.6887C23.4791 14.3467 25.7441 16.6118 25.7441 19.4021Z" fill="#40C639"/>
<path d="M3 9.29126V6.6696C3 4.49526 4.76458 2.73068 6.93892 2.73068H9.31675C12.1071 2.73068 14.3722 4.99576 14.3722 7.7861V14.3467H8.05542C5.26508 14.3467 3 12.0816 3 9.29126Z" fill="#E54242"/>
<path d="M9.31763 25.9629H6.9398C4.76546 25.9629 3.00088 24.1983 3.00088 22.024V19.4023C3.00088 16.612 5.26596 14.3469 8.0563 14.3469H14.373L14.373 20.9075C14.373 23.6978 12.108 25.9629 9.31763 25.9629Z" fill="#316CFF"/>
<path d="M15.7375 11.0279C15.7375 10.2736 15.126 9.66211 14.3717 9.66211C13.6174 9.66211 13.0059 10.2736 13.0059 11.0279V17.6664C13.0059 18.4208 13.6174 19.0323 14.3717 19.0323C15.126 19.0323 15.7375 18.4208 15.7375 17.6664V11.0279Z" fill="#232323"/>
<path d="M17.6918 15.7121C18.4461 15.7121 19.0576 15.1006 19.0576 14.3463C19.0576 13.592 18.4461 12.9805 17.6918 12.9805H11.0533C10.299 12.9805 9.68745 13.592 9.68745 14.3463C9.68745 15.1006 10.299 15.7121 11.0533 15.7121H17.6918Z" fill="#232323"/>
</svg>
