<svg width="24" height="24" viewBox="0 0 24 24" fill="none" xmlns="http://www.w3.org/2000/svg">
<path d="M10.125 2.25C5.77575 2.25 2.25 5.77575 2.25 10.125C2.25 14.4742 5.77575 18 10.125 18C12.03 18 13.776 17.3242 15.138 16.1985L20.4697 21.531C20.6105 21.6716 20.8013 21.7506 21.0003 21.7505C21.1992 21.7505 21.39 21.6714 21.5306 21.5306C21.6713 21.3899 21.7502 21.1991 21.7502 21.0001C21.7501 20.8012 21.671 20.6104 21.5302 20.4697L16.1985 15.1373C17.3651 13.7277 18.0024 11.9547 18 10.125C18 5.77575 14.4742 2.25 10.125 2.25ZM3.75 10.125C3.75 8.43425 4.42165 6.81274 5.61719 5.61719C6.81274 4.42165 8.43424 3.75 10.125 3.75C11.8158 3.75 13.4373 4.42165 14.6328 5.61719C15.8284 6.81274 16.5 8.43425 16.5 10.125C16.5 11.8158 15.8284 13.4373 14.6328 14.6328C13.4373 15.8284 11.8158 16.5 10.125 16.5C8.43424 16.5 6.81274 15.8284 5.61719 14.6328C4.42165 13.4373 3.75 11.8158 3.75 10.125Z" fill="black"/>
</svg>
