<svg width="30" height="30" viewBox="0 0 30 30" fill="none" xmlns="http://www.w3.org/2000/svg">
<path d="M21.25 4.17487C23.1503 5.27198 24.7282 6.84996 25.8253 8.75022C26.9224 10.6505 27.5 12.806 27.5 15.0003C27.5 17.1945 26.9224 19.35 25.8253 21.2503C24.7281 23.1505 23.1501 24.7285 21.2499 25.8256C19.3496 26.9227 17.194 27.5002 14.9998 27.5002C12.8056 27.5001 10.65 26.9225 8.74979 25.8254C6.84956 24.7282 5.27161 23.1502 4.17454 21.2499C3.07747 19.3497 2.49994 17.1941 2.5 14.9999L2.50625 14.5949C2.57625 12.4361 3.20443 10.3323 4.32955 8.48861C5.45466 6.6449 7.03832 5.12418 8.92612 4.07472C10.8139 3.02526 12.9414 2.48286 15.1013 2.50041C17.2611 2.51796 19.3795 3.09486 21.25 4.17487ZM15 7.49987C14.6685 7.49987 14.3505 7.63156 14.1161 7.86598C13.8817 8.1004 13.75 8.41835 13.75 8.74987C12.7554 8.74987 11.8016 9.14495 11.0983 9.84822C10.3951 10.5515 10 11.5053 10 12.4999C10 13.4944 10.3951 14.4483 11.0983 15.1515C11.8016 15.8548 12.7554 16.2499 13.75 16.2499V18.7499C13.5427 18.7613 13.3357 18.722 13.1471 18.6353C12.9584 18.5486 12.7938 18.4172 12.6675 18.2524L12.5825 18.1261C12.4115 17.8503 12.1399 17.6518 11.8252 17.5726C11.5105 17.4934 11.1773 17.5398 10.8961 17.7018C10.6149 17.8638 10.4077 18.1288 10.3184 18.4408C10.2291 18.7528 10.2646 19.0873 10.4175 19.3736C10.7365 19.9269 11.1916 20.3896 11.7396 20.7178C12.2876 21.0459 12.9103 21.2286 13.5487 21.2486H13.75C13.7497 21.555 13.862 21.8508 14.0655 22.0799C14.269 22.3089 14.5495 22.4553 14.8538 22.4911L15 22.4999C15.3315 22.4999 15.6495 22.3682 15.8839 22.1337C16.1183 21.8993 16.25 21.5814 16.25 21.2499L16.47 21.2436C17.4445 21.1873 18.3586 20.7532 19.0182 20.0336C19.6777 19.314 20.0306 18.3655 20.002 17.3898C19.9734 16.4141 19.5654 15.488 18.8648 14.8083C18.1642 14.1286 17.2261 13.7489 16.25 13.7499V11.2499C16.6975 11.2349 17.0887 11.4249 17.3325 11.7474L17.4175 11.8736C17.5885 12.1494 17.8601 12.3479 18.1748 12.4271C18.4895 12.5063 18.8227 12.46 19.1039 12.298C19.3851 12.1359 19.5923 11.8709 19.6816 11.5589C19.7709 11.2469 19.7354 10.9124 19.5825 10.6261C19.2636 10.0726 18.8086 9.60964 18.2606 9.28127C17.7126 8.95291 17.0898 8.76999 16.4513 8.74987H16.25C16.25 8.41835 16.1183 8.1004 15.8839 7.86598C15.6495 7.63156 15.3315 7.49987 15 7.49987ZM16.25 16.2499C16.5815 16.2499 16.8995 16.3816 17.1339 16.616C17.3683 16.8504 17.5 17.1683 17.5 17.4999C17.5 17.8314 17.3683 18.1493 17.1339 18.3837C16.8995 18.6182 16.5815 18.7499 16.25 18.7499V16.2499ZM13.75 11.2499V13.7499C13.4185 13.7499 13.1005 13.6182 12.8661 13.3837C12.6317 13.1493 12.5 12.8314 12.5 12.4999C12.5 12.1683 12.6317 11.8504 12.8661 11.616C13.1005 11.3816 13.4185 11.2499 13.75 11.2499Z" fill="#101010"/>
</svg>
