<svg width="24" height="24" viewBox="0 0 24 24" fill="none" xmlns="http://www.w3.org/2000/svg">
<path d="M11.9997 11.3333C12.9227 11.3333 13.8249 11.0596 14.5923 10.5469C15.3598 10.0341 15.9579 9.30525 16.3111 8.45252C16.6643 7.5998 16.7567 6.66149 16.5767 5.75625C16.3966 4.851 15.9522 4.01948 15.2995 3.36684C14.6469 2.71419 13.8153 2.26974 12.9101 2.08967C12.0049 1.90961 11.0665 2.00202 10.2138 2.35523C9.3611 2.70844 8.63226 3.30658 8.11948 4.07401C7.6067 4.84144 7.33301 5.74369 7.33301 6.66667C7.33301 7.90435 7.82467 9.09133 8.69984 9.9665C9.57501 10.8417 10.762 11.3333 11.9997 11.3333ZM11.9997 3.33334C12.6589 3.33334 13.3034 3.52883 13.8516 3.8951C14.3997 4.26137 14.827 4.78197 15.0793 5.39106C15.3316 6.00014 15.3976 6.67037 15.269 7.31697C15.1403 7.96357 14.8229 8.55752 14.3567 9.02369C13.8905 9.48987 13.2966 9.80734 12.65 9.93595C12.0034 10.0646 11.3331 9.99856 10.7241 9.74627C10.115 9.49397 9.59438 9.06673 9.22811 8.51857C8.86184 7.97041 8.66634 7.32594 8.66634 6.66667C8.66634 5.78261 9.01753 4.93477 9.64265 4.30965C10.2678 3.68452 11.1156 3.33334 11.9997 3.33334Z" fill="black"/>
<path d="M20.313 16.2467C19.2439 15.1167 17.9555 14.2166 16.5267 13.6015C15.0979 12.9863 13.5586 12.6691 12.003 12.6691C10.4474 12.6691 8.90814 12.9863 7.47932 13.6015C6.05049 14.2166 4.76214 15.1167 3.69301 16.2467C3.46122 16.4942 3.33248 16.8208 3.33301 17.16V20.6667C3.33301 21.0203 3.47349 21.3594 3.72353 21.6095C3.97358 21.8595 4.31272 22 4.66634 22H19.333C19.6866 22 20.0258 21.8595 20.2758 21.6095C20.5259 21.3594 20.6663 21.0203 20.6663 20.6667V17.16C20.6687 16.8217 20.5424 16.4953 20.313 16.2467ZM19.333 20.6667H4.66634V17.1533C5.61116 16.1584 6.74854 15.3662 8.00925 14.8248C9.26996 14.2835 10.6276 14.0043 11.9997 14.0043C13.3717 14.0043 14.7294 14.2835 15.9901 14.8248C17.2508 15.3662 18.3882 16.1584 19.333 17.1533V20.6667Z" fill="black"/>
</svg>
